<svg xmlns="http://www.w3.org/2000/svg" viewBox="0 0 512 512" width="512" height="512">
  <path fill="#f06292" d="M422.5,214.5c0-69.3-56.2-125.5-125.5-125.5c-37.4,0-71,16.3-94.1,42.2c-10.4-2.8-21.3-4.2-32.4-4.2
    c-69.3,0-125.5,56.2-125.5,125.5c0,69.3,56.2,125.5,125.5,125.5c11.1,0,22-1.4,32.4-4.2c23.1,25.9,56.7,42.2,94.1,42.2
    c69.3,0,125.5-56.2,125.5-125.5"/>
  <circle fill="#ffffff" cx="170.5" cy="214.5" r="20"/>
  <circle fill="#ffffff" cx="297" cy="214.5" r="20"/>
  <path fill="#ffffff" d="M170.5,254.5c0,35.1,28.4,63.5,63.5,63.5s63.5-28.4,63.5-63.5"/>
  <path fill="#f06292" d="M422.5,214.5c0-69.3-56.2-125.5-125.5-125.5c-37.4,0-71,16.3-94.1,42.2c-10.4-2.8-21.3-4.2-32.4-4.2
    c-69.3,0-125.5,56.2-125.5,125.5c0,69.3,56.2,125.5,125.5,125.5c11.1,0,22-1.4,32.4-4.2c23.1,25.9,56.7,42.2,94.1,42.2
    c69.3,0,125.5-56.2,125.5-125.5"/>
  <path fill="#e91e63" d="M422.5,214.5c0-69.3-56.2-125.5-125.5-125.5c-37.4,0-71,16.3-94.1,42.2c-10.4-2.8-21.3-4.2-32.4-4.2
    c-69.3,0-125.5,56.2-125.5,125.5c0,69.3,56.2,125.5,125.5,125.5c11.1,0,22-1.4,32.4-4.2c23.1,25.9,56.7,42.2,94.1,42.2
    c69.3,0,125.5-56.2,125.5-125.5"/>
  <path fill="#c2185b" d="M422.5,214.5c0-69.3-56.2-125.5-125.5-125.5c-37.4,0-71,16.3-94.1,42.2c-10.4-2.8-21.3-4.2-32.4-4.2
    c-69.3,0-125.5,56.2-125.5,125.5c0,69.3,56.2,125.5,125.5,125.5c11.1,0,22-1.4,32.4-4.2c23.1,25.9,56.7,42.2,94.1,42.2
    c69.3,0,125.5-56.2,125.5-125.5"/>
  <circle fill="#ffffff" cx="170.5" cy="214.5" r="20"/>
  <circle fill="#ffffff" cx="297" cy="214.5" r="20"/>
  <path fill="#ffffff" d="M170.5,254.5c0,35.1,28.4,63.5,63.5,63.5s63.5-28.4,63.5-63.5"/>
  <path fill="#ad1457" d="M90,214.5c0-11,9-20,20-20s20,9,20,20s-9,20-20,20S90,225.5,90,214.5z M277,214.5c0-11,9-20,20-20s20,9,20,20
    s-9,20-20,20S277,225.5,277,214.5z M170.5,254.5c0,35.1,28.4,63.5,63.5,63.5s63.5-28.4,63.5-63.5"/>
  <path fill="#880e4f" d="M90,214.5c0-11,9-20,20-20s20,9,20,20s-9,20-20,20S90,225.5,90,214.5z M277,214.5c0-11,9-20,20-20s20,9,20,20
    s-9,20-20,20S277,225.5,277,214.5z M170.5,254.5c0,35.1,28.4,63.5,63.5,63.5s63.5-28.4,63.5-63.5"/>
  <path fill="#ffffff" d="M110,214.5c0-5.5,4.5-10,10-10s10,4.5,10,10s-4.5,10-10,10S110,220,110,214.5z M297,214.5c0-5.5,4.5-10,10-10
    s10,4.5,10,10s-4.5,10-10,10S297,220,297,214.5z"/>
  <path fill="#c2185b" d="M45,214.5c0-69.3,56.2-125.5,125.5-125.5c11.1,0,22,1.4,32.4,4.2c23.1-25.9,56.7-42.2,94.1-42.2
    c69.3,0,125.5,56.2,125.5,125.5"/>
  <path fill="#ad1457" d="M45,214.5c0-69.3,56.2-125.5,125.5-125.5c11.1,0,22,1.4,32.4,4.2c23.1-25.9,56.7-42.2,94.1-42.2
    c69.3,0,125.5,56.2,125.5,125.5"/>
  <path fill="#880e4f" d="M45,214.5c0-69.3,56.2-125.5,125.5-125.5c11.1,0,22,1.4,32.4,4.2c23.1-25.9,56.7-42.2,94.1-42.2
    c69.3,0,125.5,56.2,125.5,125.5"/>
  <path fill="#ffeb3b" d="M422.5,214.5v50c0,13.8-11.2,25-25,25h-25v-50h25C411.3,239.5,422.5,228.3,422.5,214.5z"/>
  <path fill="#fdd835" d="M422.5,214.5v50c0,13.8-11.2,25-25,25h-25v-50h25C411.3,239.5,422.5,228.3,422.5,214.5z"/>
  <path fill="#fbc02d" d="M422.5,214.5v50c0,13.8-11.2,25-25,25h-25v-50h25C411.3,239.5,422.5,228.3,422.5,214.5z"/>
  <path fill="#f9a825" d="M422.5,214.5v50c0,13.8-11.2,25-25,25h-25v-50h25C411.3,239.5,422.5,228.3,422.5,214.5z"/>
  <path fill="#f57f17" d="M422.5,214.5v50c0,13.8-11.2,25-25,25h-25v-50h25C411.3,239.5,422.5,228.3,422.5,214.5z"/>
</svg>